<svg width="920" height="1081" viewBox="0 0 920 1081" fill="none" xmlns="http://www.w3.org/2000/svg">
<mask id="mask0" style="mask-type:alpha" maskUnits="userSpaceOnUse" x="0" y="0" width="920" height="1081">
<path d="M919.925 0.0163879H0.924805V1080.02H919.925V0.0163879Z" fill="#201D1D"/>
</mask>
<g mask="url(#mask0)">
<path d="M200.025 720.216H-160.075V1080.32H200.025V720.216Z" fill="white"/>
<path d="M560.025 720.216H200.025V1080.32H560.125V720.216H560.025Z" fill="#7A7C7F" fill-opacity="0.9"/>
<path d="M200.025 360.116H-160.075V720.216H200.025V360.116Z" fill="#DBDCDD"/>
<path d="M560.025 360.116H200.025V720.216H560.125V360.116H560.025Z" fill="#5BB69A" fill-opacity="0.5"/>
<path d="M560.025 0.116394H200.025V360.216H560.125V0.116394H560.025Z" fill="#62C2A4" fill-opacity="0.8"/>
<path d="M200.025 360.116L-160.075 720.216H200.025V360.116Z" fill="white"/>
<path d="M559.825 720.016L919.925 359.916H559.825V720.016Z" fill="#E8E8E9"/>
<path d="M560.025 720.216L200.025 360.116H560.125V720.216H560.025Z" fill="#2A343E"/>
<path opacity="0.17" d="M-160.075 360.116V0.116394H305.025C404.425 0.116394 485.025 80.7164 485.025 180.116C485.025 279.516 404.425 360.116 305.025 360.116H-160.075Z" fill="white"/>
<path d="M-153.075 1080.32L200.425 720.216H205.025C304.425 720.216 385.025 800.816 385.025 900.216C385.025 999.616 304.425 1080.22 205.025 1080.22H-153.075V1080.32Z" fill="#1C252E"/>
<path d="M-160.075 0.116394L200.025 360.216H-160.075V0.116394Z" fill="#1C252E"/>
<path d="M560.025 0.116394H920.125V180.116C920.125 279.516 839.525 360.116 740.125 360.116C640.725 360.116 560.125 279.516 560.125 180.116V0.116394H560.025Z" fill="#E8E8E9"/>
</g>
</svg>
