<svg width="613" height="769" viewBox="0 0 613 769" fill="none" xmlns="http://www.w3.org/2000/svg">
<mask id="mask0" style="mask-type:alpha" maskUnits="userSpaceOnUse" x="0" y="0" width="613" height="769">
<rect x="0.294922" width="612.3" height="768.848" fill="#C4C4C4"/>
</mask>
<g mask="url(#mask0)">
<path d="M306.495 612.3H612.695V306.2H306.495V612.3Z" fill="#5BB69A"/>
<path d="M306.495 306.2H612.695V0H306.495V306.2Z" fill="#62C2A4"/>
<path opacity="0.23" d="M306.495 306.2H0.294922L306.495 612.4V306.2Z" fill="#E8E8E9"/>
<path opacity="0.5" d="M612.595 306.2V612.4L306.495 306.2H612.595Z" fill="#2A343E"/>
<path opacity="0.39" d="M459.495 157.1C543.995 157.1 612.595 225.6 612.595 310.2C612.595 394.7 544.095 463.3 459.495 463.3H306.495V157.1H459.495Z" fill="white"/>
<path d="M459.095 768.9C374.595 768.9 305.995 700.4 305.995 615.8C305.995 531.2 374.495 462.7 459.095 462.7H462.995L769.895 768.9H459.095V768.9Z" fill="#1C252E"/>
<path opacity="0.64" d="M153.395 306.2C68.7949 306.2 0.294922 237.6 0.294922 153.1C0.294922 68.5 68.7949 0 153.395 0H306.495V306.2H153.395Z" fill="#E8E8E9"/>
</g>
</svg>
