<svg width="919" height="1080" viewBox="0 0 919 1080" fill="none" xmlns="http://www.w3.org/2000/svg">
<mask id="mask0" style="mask-type:alpha" maskUnits="userSpaceOnUse" x="0" y="0" width="919" height="1080">
<path d="M919 0H0V1080H919V0Z" fill="#201D1D"/>
</mask>
<g mask="url(#mask0)">
<path d="M199.1 720.2H-161V1080.3H199.1V720.2Z" fill="white"/>
<path d="M559.1 720.2H199.1V1080.3H559.2V720.2H559.1Z" fill="#7A7C7F"/>
<path d="M199.1 360.1H-161V720.2H199.1V360.1Z" fill="#DBDCDD"/>
<path d="M559.1 360.1H199.1V720.2H559.2V360.1H559.1Z" fill="#5BB69A"/>
<path d="M559.1 0.100006H199.1V360.2H559.2V0.100006H559.1Z" fill="#62C2A4"/>
<path d="M199.1 360.1L-161 720.2H199.1V360.1Z" fill="white"/>
<path d="M558.9 720L919 359.9H558.9V720Z" fill="#E8E8E9"/>
<path d="M559.1 720.2L199.1 360.1H559.2V720.2H559.1Z" fill="#2A343E"/>
<path opacity="0.17" d="M-161 360.1V0.100006H304.1C403.5 0.100006 484.1 80.7 484.1 180.1C484.1 279.5 403.5 360.1 304.1 360.1H-161Z" fill="white"/>
<path d="M-154 1080.3L199.5 720.2H204.1C303.5 720.2 384.1 800.8 384.1 900.2C384.1 999.6 303.5 1080.2 204.1 1080.2H-154V1080.3Z" fill="#1C252E"/>
<path d="M-161 0.100006L199.1 360.2H-161V0.100006Z" fill="#1C252E"/>
<path d="M559.1 0.100006H919.2V180.1C919.2 279.5 838.6 360.1 739.2 360.1C639.8 360.1 559.2 279.5 559.2 180.1V0.100006H559.1Z" fill="#E8E8E9"/>
</g>
</svg>
