<svg width="1416" height="515" viewBox="0 0 1416 515" fill="none" xmlns="http://www.w3.org/2000/svg">
<mask id="mask0" mask-type="alpha" maskUnits="userSpaceOnUse" x="0" y="0" width="1416" height="515">
<rect x="0.612305" y="0.933838" width="1414.7" height="513.5" fill="#FF0000"/>
</mask>
<g mask="url(#mask0)">
<path d="M708.012 107.934L1017.61 -117.066L1002.21 -164.566H989.012L1002.91 -121.766L708.012 92.4338L413.012 -121.766L426.912 -164.566H413.812L398.312 -117.066L708.012 107.934Z" fill="url(#paint0_radial)"/>
<path d="M708.012 43.7338L954.812 -135.566L945.412 -164.566H930.412L938.012 -141.066L708.012 26.0338L477.912 -141.066L485.612 -164.566H470.512L461.112 -135.566L708.012 43.7338Z" fill="url(#paint1_radial)"/>
<path d="M708.012 65.1338L975.712 -129.466L964.312 -164.566H949.912L959.712 -134.666L708.012 48.2338L456.312 -134.666L466.012 -164.566H451.612L440.212 -129.466L708.012 65.1338Z" fill="url(#paint2_radial)"/>
<path d="M708.012 86.5338L996.712 -123.266L983.212 -164.566H969.512L981.312 -128.266L708.012 70.3338L434.712 -128.266L446.512 -164.566H432.712L419.312 -123.266L708.012 86.5338Z" fill="url(#paint3_radial)"/>
<path d="M708.012 129.334L1038.61 -110.866L1021.11 -164.566H1008.61L1024.51 -115.366L708.012 114.534L391.412 -115.366L407.412 -164.566H394.912L377.412 -110.866L708.012 129.334Z" fill="url(#paint4_radial)"/>
<path d="M708.012 150.734L1059.51 -104.666L1040.01 -164.566H1028.11L1046.21 -108.966L708.012 136.734L369.812 -108.966L387.912 -164.566H375.912L356.512 -104.666L708.012 150.734Z" fill="url(#paint5_radial)"/>
<path d="M708.012 172.134L1080.41 -98.4662L1058.91 -164.566H1047.61L1067.81 -102.566L708.012 158.834L348.212 -102.566L368.312 -164.566H357.012L335.512 -98.4662L708.012 172.134Z" fill="url(#paint6_radial)"/>
<path d="M708.012 193.534L1101.41 -92.2662L1077.91 -164.566H1067.21L1089.41 -96.1662L708.012 180.934L326.512 -96.1662L348.812 -164.566H338.112L314.612 -92.2662L708.012 193.534Z" fill="url(#paint7_radial)"/>
<path d="M708.012 22.3338L933.912 -141.766L926.512 -164.566H910.812L916.412 -147.466L708.012 3.93378L499.512 -147.466L505.112 -164.566H489.512L482.112 -141.766L708.012 22.3338Z" fill="url(#paint8_radial)"/>
<path d="M43.2123 -11.2662L708.012 471.734L708.712 471.134L1373.51 -11.7662L1373.21 -12.6662L1323.81 -164.566H1321.21L1370.51 -12.7662L708.012 468.534L45.4123 -12.7662L94.8123 -164.566H92.1123L42.5123 -11.7662L43.2123 -11.2662Z" fill="url(#paint9_radial)"/>
<path d="M85.4123 -23.3662L708.012 428.934L709.112 428.134L1331.61 -24.1662L1331.21 -25.4662L1286.01 -164.566H1282.11L1327.31 -25.5662L708.012 424.334L88.7123 -25.5662L133.912 -164.566H130.012L84.3123 -24.1662L85.4123 -23.3662Z" fill="url(#paint10_radial)"/>
<path d="M708.012 364.734L1268.81 -42.7662L1229.21 -164.566H1223.51L1262.41 -44.8662L708.012 357.934L153.512 -44.8662L192.512 -164.566H186.712L147.112 -42.7662L708.012 364.734Z" fill="url(#paint11_radial)"/>
<path d="M127.612 -35.5662L708.012 386.034L1289.71 -36.5662L1289.21 -38.2662L1248.11 -164.566H1243.01L1284.01 -38.3662L708.012 380.034L131.912 -38.3662L172.912 -164.566H167.812L126.212 -36.5662L127.612 -35.5662Z" fill="url(#paint12_radial)"/>
<path d="M106.512 -29.4662L708.012 407.534L1310.71 -30.3662L1310.21 -31.8662L1267.11 -164.566H1262.61L1305.71 -31.9662L708.012 402.234L110.312 -31.9662L153.412 -164.566H148.912L105.312 -30.3662L106.512 -29.4662Z" fill="url(#paint13_radial)"/>
<path d="M296.512 -84.0662L708.012 214.934L1122.31 -86.0662L1096.81 -164.566H1086.71L1111.01 -89.7662L708.012 203.034L304.912 -89.7662L329.212 -164.566H319.212L293.712 -86.0662L296.512 -84.0662Z" fill="url(#paint14_radial)"/>
<path d="M64.3124 -17.3662L708.012 450.234L1352.61 -17.9662L1352.21 -19.0662L1304.91 -164.566H1301.61L1348.91 -19.1662L708.012 446.434L67.1124 -19.1662L114.312 -164.566H111.012L63.4124 -17.9662L64.3124 -17.3662Z" fill="url(#paint15_radial)"/>
<path d="M22.1123 -5.16623L708.012 493.034L708.512 492.634L1394.41 -5.56622L1342.81 -164.566H1340.71L1392.11 -6.36623L708.012 490.634L23.8123 -6.36623L75.2123 -164.566H73.2123L21.5123 -5.56622L22.1123 -5.16623Z" fill="url(#paint16_radial)"/>
<path d="M1361.71 -164.566H1360.31L1413.81 0.033783L708.012 512.834L2.2123 0.033783L55.7123 -164.566H54.3123L0.612305 0.633774L1.0123 0.833771L708.012 514.434L708.412 514.234L1415.31 0.633774L1415.21 0.133774L1361.71 -164.566Z" fill="url(#paint17_radial)"/>
<path d="M708.012 257.734L1164.11 -73.6662L1134.61 -164.566H1125.81L1154.31 -76.8662L708.012 247.334L261.712 -76.8662L290.212 -164.566H281.312L251.812 -73.6662L708.012 257.734Z" fill="url(#paint18_radial)"/>
<path d="M708.012 279.134L1185.11 -67.4662L1153.51 -164.566H1145.31L1175.91 -70.4662L708.012 269.434L240.012 -70.4662L270.612 -164.566H262.412L230.912 -67.4662L708.012 279.134Z" fill="url(#paint19_radial)"/>
<path d="M708.012 236.334L1143.21 -79.8662L1115.71 -164.566H1106.21L1132.71 -83.3662L708.012 225.234L283.312 -83.3662L309.712 -164.566H300.212L272.712 -79.8662L708.012 236.334Z" fill="url(#paint20_radial)"/>
<path d="M169.812 -47.6662L708.012 343.234L709.712 342.034L1247.91 -48.9662L1210.31 -164.566H1203.91L1240.81 -51.2662L708.012 335.834L175.212 -51.2662L212.012 -164.566H205.612L168.112 -48.9662L169.812 -47.6662Z" fill="url(#paint21_radial)"/>
<path d="M708.012 321.934L1227.01 -55.1662L1191.41 -164.566H1184.41L1219.11 -57.6662L708.012 313.734L196.812 -57.6662L231.512 -164.566H224.612L189.012 -55.1662L708.012 321.934Z" fill="url(#paint22_radial)"/>
<path d="M212.012 -59.7662L708.012 300.534L1206.01 -61.3662L1172.51 -164.566H1164.91L1197.51 -64.0662L708.012 291.534L218.412 -64.0662L251.112 -164.566H243.512L209.912 -61.3662L212.012 -59.7662Z" fill="url(#paint23_radial)"/>
</g>
<defs>
<radialGradient id="paint0_radial" cx="0" cy="0" r="1" gradientUnits="userSpaceOnUse" gradientTransform="translate(707.962 -28.3162) rotate(90) scale(136.25 309.65)">
<stop stop-color="#FF0000"/>
<stop offset="1" stop-color="#FF0000" stop-opacity="0"/>
</radialGradient>
<radialGradient id="paint1_radial" cx="0" cy="0" r="1" gradientUnits="userSpaceOnUse" gradientTransform="translate(707.962 -60.4162) rotate(90) scale(104.15 246.85)">
<stop stop-color="#FF0000"/>
<stop offset="1" stop-color="#FF0000" stop-opacity="0"/>
</radialGradient>
<radialGradient id="paint2_radial" cx="0" cy="0" r="1" gradientUnits="userSpaceOnUse" gradientTransform="translate(707.962 -49.7162) rotate(90) scale(114.85 267.75)">
<stop stop-color="#FF0000"/>
<stop offset="1" stop-color="#FF0000" stop-opacity="0"/>
</radialGradient>
<radialGradient id="paint3_radial" cx="0" cy="0" r="1" gradientUnits="userSpaceOnUse" gradientTransform="translate(708.012 -39.0162) rotate(90) scale(125.55 288.7)">
<stop stop-color="#FF0000"/>
<stop offset="1" stop-color="#FF0000" stop-opacity="0"/>
</radialGradient>
<radialGradient id="paint4_radial" cx="0" cy="0" r="1" gradientUnits="userSpaceOnUse" gradientTransform="translate(708.012 -17.6162) rotate(90) scale(146.95 330.6)">
<stop stop-color="#FF0000"/>
<stop offset="1" stop-color="#FF0000" stop-opacity="0"/>
</radialGradient>
<radialGradient id="paint5_radial" cx="0" cy="0" r="1" gradientUnits="userSpaceOnUse" gradientTransform="translate(708.012 -6.91623) rotate(90) scale(157.65 351.5)">
<stop stop-color="#FF0000"/>
<stop offset="1" stop-color="#FF0000" stop-opacity="0"/>
</radialGradient>
<radialGradient id="paint6_radial" cx="0" cy="0" r="1" gradientUnits="userSpaceOnUse" gradientTransform="translate(707.962 3.78378) rotate(90) scale(168.35 372.45)">
<stop stop-color="#FF0000"/>
<stop offset="1" stop-color="#FF0000" stop-opacity="0"/>
</radialGradient>
<radialGradient id="paint7_radial" cx="0" cy="0" r="1" gradientUnits="userSpaceOnUse" gradientTransform="translate(708.012 14.4838) rotate(90) scale(179.05 393.4)">
<stop stop-color="#FF0000"/>
<stop offset="1" stop-color="#FF0000" stop-opacity="0"/>
</radialGradient>
<radialGradient id="paint8_radial" cx="0" cy="0" r="1" gradientUnits="userSpaceOnUse" gradientTransform="translate(708.012 -71.1162) rotate(90) scale(93.45 225.9)">
<stop stop-color="#FF0000"/>
<stop offset="1" stop-color="#FF0000" stop-opacity="0"/>
</radialGradient>
<radialGradient id="paint9_radial" cx="0" cy="0" r="1" gradientUnits="userSpaceOnUse" gradientTransform="translate(708.012 153.584) rotate(90) scale(318.15 665.5)">
<stop stop-color="#FF0000"/>
<stop offset="1" stop-color="#FF0000" stop-opacity="0"/>
</radialGradient>
<radialGradient id="paint10_radial" cx="0" cy="0" r="1" gradientUnits="userSpaceOnUse" gradientTransform="translate(707.962 132.184) rotate(90) scale(296.75 623.65)">
<stop stop-color="#FF0000"/>
<stop offset="1" stop-color="#FF0000" stop-opacity="0"/>
</radialGradient>
<radialGradient id="paint11_radial" cx="0" cy="0" r="1" gradientUnits="userSpaceOnUse" gradientTransform="translate(707.962 100.084) rotate(90) scale(264.65 560.85)">
<stop stop-color="#FF0000"/>
<stop offset="1" stop-color="#FF0000" stop-opacity="0"/>
</radialGradient>
<radialGradient id="paint12_radial" cx="0" cy="0" r="1" gradientUnits="userSpaceOnUse" gradientTransform="translate(707.962 110.734) rotate(90) scale(275.3 581.75)">
<stop stop-color="#FF0000"/>
<stop offset="1" stop-color="#FF0000" stop-opacity="0"/>
</radialGradient>
<radialGradient id="paint13_radial" cx="0" cy="0" r="1" gradientUnits="userSpaceOnUse" gradientTransform="translate(708.012 121.484) rotate(90) scale(286.05 602.7)">
<stop stop-color="#FF0000"/>
<stop offset="1" stop-color="#FF0000" stop-opacity="0"/>
</radialGradient>
<radialGradient id="paint14_radial" cx="0" cy="0" r="1" gradientUnits="userSpaceOnUse" gradientTransform="translate(708.012 25.1838) rotate(90) scale(189.75 414.3)">
<stop stop-color="#FF0000"/>
<stop offset="1" stop-color="#FF0000" stop-opacity="0"/>
</radialGradient>
<radialGradient id="paint15_radial" cx="0" cy="0" r="1" gradientUnits="userSpaceOnUse" gradientTransform="translate(708.012 142.834) rotate(90) scale(307.4 644.6)">
<stop stop-color="#FF0000"/>
<stop offset="1" stop-color="#FF0000" stop-opacity="0"/>
</radialGradient>
<radialGradient id="paint16_radial" cx="0" cy="0" r="1" gradientUnits="userSpaceOnUse" gradientTransform="translate(707.962 164.234) rotate(90) scale(328.8 686.45)">
<stop stop-color="#FF0000"/>
<stop offset="1" stop-color="#FF0000" stop-opacity="0"/>
</radialGradient>
<radialGradient id="paint17_radial" cx="0" cy="0" r="1" gradientUnits="userSpaceOnUse" gradientTransform="translate(707.962 174.934) rotate(90) scale(339.5 707.35)">
<stop stop-color="#FF0000"/>
<stop offset="1" stop-color="#FF0000" stop-opacity="0"/>
</radialGradient>
<radialGradient id="paint18_radial" cx="0" cy="0" r="1" gradientUnits="userSpaceOnUse" gradientTransform="translate(707.962 46.5838) rotate(90) scale(211.15 456.15)">
<stop stop-color="#FF0000"/>
<stop offset="1" stop-color="#FF0000" stop-opacity="0"/>
</radialGradient>
<radialGradient id="paint19_radial" cx="0" cy="0" r="1" gradientUnits="userSpaceOnUse" gradientTransform="translate(708.012 57.2838) rotate(90) scale(221.85 477.1)">
<stop stop-color="#FF0000"/>
<stop offset="1" stop-color="#FF0000" stop-opacity="0"/>
</radialGradient>
<radialGradient id="paint20_radial" cx="0" cy="0" r="1" gradientUnits="userSpaceOnUse" gradientTransform="translate(707.962 35.8838) rotate(90) scale(200.45 435.25)">
<stop stop-color="#FF0000"/>
<stop offset="1" stop-color="#FF0000" stop-opacity="0"/>
</radialGradient>
<radialGradient id="paint21_radial" cx="0" cy="0" r="1" gradientUnits="userSpaceOnUse" gradientTransform="translate(708.012 89.3338) rotate(90) scale(253.9 539.9)">
<stop stop-color="#FF0000"/>
<stop offset="1" stop-color="#FF0000" stop-opacity="0"/>
</radialGradient>
<radialGradient id="paint22_radial" cx="0" cy="0" r="1" gradientUnits="userSpaceOnUse" gradientTransform="translate(708.012 78.6838) rotate(90) scale(243.25 519)">
<stop stop-color="#FF0000"/>
<stop offset="1" stop-color="#FF0000" stop-opacity="0"/>
</radialGradient>
<radialGradient id="paint23_radial" cx="0" cy="0" r="1" gradientUnits="userSpaceOnUse" gradientTransform="translate(707.962 67.9838) rotate(90) scale(232.55 498.05)">
<stop stop-color="#FF0000"/>
<stop offset="1" stop-color="#FF0000" stop-opacity="0"/>
</radialGradient>
</defs>
</svg>
