<svg width="349" height="43" viewBox="0 0 349 43" fill="none" xmlns="http://www.w3.org/2000/svg">
<path d="M11.6915 16.9401L11.6915 26.0121H12.9555L12.9555 14.8121H11.6755L7.59549 20.9241L3.51549 14.8121H2.23549L2.23549 26.0121H3.46749L3.46749 16.9561L7.54749 22.9401H7.61149L11.6915 16.9401ZM20.2381 14.8121L20.2381 26.0121H21.5021L21.5021 14.8121H20.2381ZM38.3824 24.2361L37.5504 23.4201C37.017 23.9321 36.473 24.3321 35.9184 24.6201C35.3637 24.8974 34.7024 25.0361 33.9344 25.0361C33.3157 25.0361 32.7397 24.9187 32.2064 24.6841C31.6837 24.4387 31.225 24.1081 30.8304 23.6921C30.4464 23.2761 30.1424 22.7854 29.9184 22.2201C29.705 21.6547 29.5984 21.0467 29.5984 20.3961C29.5984 19.7454 29.705 19.1427 29.9184 18.5881C30.1424 18.0227 30.4464 17.5321 30.8304 17.1161C31.225 16.7001 31.6837 16.3747 32.2064 16.1401C32.7397 15.9054 33.3157 15.7881 33.9344 15.7881C34.7024 15.7881 35.3584 15.9321 35.9024 16.2201C36.457 16.5081 36.9744 16.8761 37.4544 17.3241L38.3184 16.3961C38.041 16.1294 37.753 15.8894 37.4544 15.6761C37.1557 15.4521 36.8304 15.2654 36.4784 15.1161C36.1264 14.9561 35.7424 14.8334 35.3264 14.7481C34.921 14.6627 34.4624 14.6201 33.9504 14.6201C33.129 14.6201 32.3717 14.7747 31.6784 15.0841C30.985 15.3827 30.3877 15.7987 29.8864 16.3321C29.385 16.8547 28.9904 17.4681 28.7024 18.1721C28.425 18.8761 28.2864 19.6281 28.2864 20.4281C28.2864 21.2387 28.425 21.9961 28.7024 22.7001C28.9904 23.4041 29.385 24.0174 29.8864 24.5401C30.3877 25.0521 30.9797 25.4574 31.6624 25.7561C32.345 26.0547 33.0917 26.2041 33.9024 26.2041C34.4144 26.2041 34.8784 26.1561 35.2944 26.0601C35.7104 25.9641 36.0997 25.8307 36.4624 25.6601C36.825 25.4894 37.161 25.2867 37.4704 25.0521C37.7904 24.8067 38.0944 24.5347 38.3824 24.2361ZM52.3229 20.9721V26.0121H53.5869V14.8121H52.3229V19.7881H45.8589V14.8121H44.5949V26.0121H45.8589V20.9721H52.3229ZM66.0791 14.7321H64.8951L59.7911 26.0121H61.0871L62.4151 23.0521H68.5111L69.8231 26.0121H71.1831L66.0791 14.7321ZM68.0151 21.9161H62.9111L65.4711 16.2041L68.0151 21.9161ZM85.4877 14.8121L77.3917 14.8121V26.0121H85.5677V24.8601H78.6557V20.9401H84.7677V19.7881H78.6557V15.9641L85.4877 15.9641V14.8121ZM92.1105 26.0121H99.6785V24.8441H93.3745V14.8121H92.1105V26.0121Z" fill="white"/>
<path d="M128.771 2.57131C129.105 1.9674 128.887 1.20668 128.283 0.872173C127.679 0.537671 126.918 0.756064 126.584 1.35997L128.771 2.57131ZM109.558 32.0976C109.224 32.7015 109.442 33.4623 110.046 33.7968C110.65 34.1313 111.41 33.9129 111.745 33.309L109.558 32.0976ZM126.584 1.35997L109.558 32.0976L111.745 33.309L128.771 2.57131L126.584 1.35997Z" fill="#FF0000"/>
<path d="M131.175 10.9265C131.509 10.3226 131.291 9.5619 130.687 9.2274C130.083 8.8929 129.323 9.11129 128.988 9.71519L131.175 10.9265ZM111.962 40.4529C111.628 41.0568 111.846 41.8175 112.45 42.152C113.054 42.4865 113.815 42.2681 114.149 41.6642L111.962 40.4529ZM128.988 9.71519L111.962 40.4529L114.149 41.6642L131.175 10.9265L128.988 9.71519Z" fill="#FF0000"/>
<path d="M143.97 26.1721C143.095 26.1721 142.359 26.0068 141.762 25.6761C141.175 25.3454 140.69 24.9508 140.306 24.4921L141.858 22.7641C142.178 23.1161 142.498 23.3934 142.818 23.5961C143.148 23.7881 143.511 23.8841 143.906 23.8841C144.375 23.8841 144.743 23.7401 145.01 23.4521C145.276 23.1534 145.41 22.6788 145.41 22.0281V14.8121L147.938 14.8121V22.1401C147.938 22.8121 147.847 23.3934 147.666 23.8841C147.484 24.3748 147.223 24.7908 146.882 25.1321C146.54 25.4734 146.119 25.7348 145.618 25.9161C145.127 26.0868 144.578 26.1721 143.97 26.1721ZM160.889 21.3241L159.401 17.6921L157.913 21.3241H160.889ZM158.297 14.7321H160.569L165.369 26.0121H162.793L161.769 23.5001H157.033L156.009 26.0121H153.497L158.297 14.7321ZM176.345 26.2041C175.524 26.2041 174.761 26.0548 174.057 25.7561C173.353 25.4574 172.745 25.0521 172.233 24.5401C171.721 24.0174 171.321 23.4041 171.033 22.7001C170.745 21.9961 170.601 21.2441 170.601 20.4441V20.4121C170.601 19.6121 170.745 18.8654 171.033 18.1721C171.321 17.4681 171.721 16.8548 172.233 16.3321C172.745 15.7988 173.359 15.3828 174.073 15.0841C174.788 14.7748 175.577 14.6201 176.441 14.6201C176.964 14.6201 177.439 14.6628 177.865 14.7481C178.303 14.8334 178.697 14.9508 179.049 15.1001C179.401 15.2494 179.727 15.4308 180.025 15.6441C180.324 15.8574 180.601 16.0921 180.857 16.3481L179.289 18.1561C178.852 17.7614 178.404 17.4521 177.945 17.2281C177.497 17.0041 176.991 16.8921 176.425 16.8921C175.956 16.8921 175.519 16.9828 175.113 17.1641C174.719 17.3454 174.377 17.5961 174.089 17.9161C173.801 18.2361 173.577 18.6094 173.417 19.0361C173.257 19.4521 173.177 19.9001 173.177 20.3801V20.4121C173.177 20.8921 173.257 21.3454 173.417 21.7721C173.577 22.1988 173.796 22.5721 174.073 22.8921C174.361 23.2121 174.703 23.4681 175.097 23.6601C175.503 23.8414 175.945 23.9321 176.425 23.9321C177.065 23.9321 177.604 23.8148 178.041 23.5801C178.489 23.3454 178.932 23.0254 179.369 22.6201L180.937 24.2041C180.649 24.5134 180.351 24.7908 180.041 25.0361C179.732 25.2814 179.391 25.4948 179.017 25.6761C178.655 25.8468 178.255 25.9748 177.817 26.0601C177.38 26.1561 176.889 26.2041 176.345 26.2041ZM186.91 14.8121H189.374V19.7081L193.918 14.8121H196.894L192.334 19.5641L197.102 26.0121H194.142L190.67 21.2441L189.374 22.5881V26.0121H186.91V14.8121ZM206.581 26.1721C205.728 26.1721 204.891 26.0281 204.069 25.7401C203.248 25.4414 202.501 24.9881 201.829 24.3801L203.285 22.6361C203.797 23.0521 204.32 23.3828 204.853 23.6281C205.397 23.8734 205.989 23.9961 206.629 23.9961C207.141 23.9961 207.536 23.9054 207.813 23.7241C208.101 23.5321 208.245 23.2708 208.245 22.9401V22.9081C208.245 22.7481 208.213 22.6094 208.149 22.4921C208.096 22.3641 207.984 22.2468 207.813 22.1401C207.653 22.0334 207.424 21.9268 207.125 21.8201C206.837 21.7134 206.459 21.6014 205.989 21.4841C205.424 21.3454 204.912 21.1908 204.453 21.0201C203.995 20.8494 203.605 20.6414 203.285 20.3961C202.965 20.1401 202.715 19.8254 202.533 19.4521C202.363 19.0788 202.277 18.6148 202.277 18.0601V18.0281C202.277 17.5161 202.373 17.0574 202.565 16.6521C202.757 16.2361 203.024 15.8788 203.365 15.5801C203.717 15.2814 204.133 15.0521 204.613 14.8921C205.093 14.7321 205.621 14.6521 206.197 14.6521C207.019 14.6521 207.771 14.7748 208.453 15.0201C209.147 15.2654 209.781 15.6174 210.357 16.0761L209.077 17.9321C208.576 17.5908 208.085 17.3241 207.605 17.1321C207.125 16.9294 206.645 16.8281 206.165 16.8281C205.685 16.8281 205.323 16.9241 205.077 17.1161C204.843 17.2974 204.725 17.5268 204.725 17.8041V17.8361C204.725 18.0174 204.757 18.1774 204.821 18.3161C204.896 18.4441 205.024 18.5614 205.205 18.6681C205.387 18.7748 205.632 18.8761 205.941 18.9721C206.261 19.0681 206.661 19.1801 207.141 19.3081C207.707 19.4574 208.208 19.6281 208.645 19.8201C209.093 20.0014 209.467 20.2254 209.765 20.4921C210.075 20.7481 210.304 21.0521 210.453 21.4041C210.613 21.7561 210.693 22.1774 210.693 22.6681V22.7001C210.693 23.2548 210.592 23.7508 210.389 24.1881C210.187 24.6148 209.904 24.9774 209.541 25.2761C209.179 25.5641 208.747 25.7881 208.245 25.9481C207.744 26.0974 207.189 26.1721 206.581 26.1721ZM222.304 23.9321C222.794 23.9321 223.248 23.8414 223.664 23.6601C224.08 23.4788 224.432 23.2281 224.72 22.9081C225.018 22.5881 225.248 22.2201 225.408 21.8041C225.578 21.3774 225.664 20.9241 225.664 20.4441V20.4121C225.664 19.9321 225.578 19.4788 225.408 19.0521C225.248 18.6254 225.013 18.2521 224.704 17.9321C224.405 17.6121 224.048 17.3614 223.632 17.1801C223.216 16.9881 222.762 16.8921 222.272 16.8921C221.77 16.8921 221.312 16.9828 220.896 17.1641C220.49 17.3454 220.138 17.5961 219.84 17.9161C219.552 18.2361 219.322 18.6094 219.152 19.0361C218.992 19.4521 218.912 19.9001 218.912 20.3801V20.4121C218.912 20.8921 218.992 21.3454 219.152 21.7721C219.322 22.1988 219.557 22.5721 219.856 22.8921C220.165 23.2121 220.522 23.4681 220.928 23.6601C221.344 23.8414 221.802 23.9321 222.304 23.9321ZM222.272 26.2041C221.408 26.2041 220.613 26.0548 219.888 25.7561C219.162 25.4468 218.533 25.0361 218 24.5241C217.477 24.0014 217.066 23.3934 216.768 22.7001C216.48 21.9961 216.336 21.2441 216.336 20.4441V20.4121C216.336 19.6121 216.485 18.8654 216.784 18.1721C217.082 17.4681 217.493 16.8548 218.016 16.3321C218.549 15.7988 219.178 15.3828 219.904 15.0841C220.64 14.7748 221.44 14.6201 222.304 14.6201C223.168 14.6201 223.962 14.7748 224.688 15.0841C225.413 15.3828 226.037 15.7934 226.56 16.3161C227.093 16.8281 227.504 17.4361 227.792 18.1401C228.09 18.8334 228.24 19.5801 228.24 20.3801V20.4121C228.24 21.2121 228.09 21.9641 227.792 22.6681C227.493 23.3614 227.077 23.9748 226.544 24.5081C226.021 25.0308 225.392 25.4468 224.656 25.7561C223.93 26.0548 223.136 26.2041 222.272 26.2041ZM234.426 14.8121H236.698L241.946 21.7081V14.8121H244.378V26.0121H242.282L236.858 18.8921V26.0121H234.426V14.8121ZM250.522 19.8841H255.45V22.2201H250.522V19.8841ZM266.013 20.4601C266.632 20.4601 267.112 20.3001 267.453 19.9801C267.795 19.6494 267.965 19.2441 267.965 18.7641V18.7321C267.965 18.1774 267.784 17.7561 267.421 17.4681C267.069 17.1801 266.584 17.0361 265.965 17.0361H264.061V20.4601H266.013ZM261.597 14.8121H266.173C266.845 14.8121 267.443 14.9081 267.965 15.1001C268.499 15.2814 268.947 15.5428 269.309 15.8841C269.683 16.2254 269.965 16.6361 270.157 17.1161C270.36 17.5854 270.461 18.1081 270.461 18.6841V18.7161C270.461 19.3668 270.344 19.9374 270.109 20.4281C269.875 20.9188 269.549 21.3294 269.133 21.6601C268.728 21.9908 268.248 22.2414 267.693 22.4121C267.149 22.5721 266.563 22.6521 265.933 22.6521H264.061V26.0121H261.597V14.8121ZM281.757 23.9321C282.248 23.9321 282.701 23.8414 283.117 23.6601C283.533 23.4788 283.885 23.2281 284.173 22.9081C284.472 22.5881 284.701 22.2201 284.861 21.8041C285.032 21.3774 285.117 20.9241 285.117 20.4441V20.4121C285.117 19.9321 285.032 19.4788 284.861 19.0521C284.701 18.6254 284.466 18.2521 284.157 17.9321C283.858 17.6121 283.501 17.3614 283.085 17.1801C282.669 16.9881 282.216 16.8921 281.725 16.8921C281.224 16.8921 280.765 16.9828 280.349 17.1641C279.944 17.3454 279.592 17.5961 279.293 17.9161C279.005 18.2361 278.776 18.6094 278.605 19.0361C278.445 19.4521 278.365 19.9001 278.365 20.3801V20.4121C278.365 20.8921 278.445 21.3454 278.605 21.7721C278.776 22.1988 279.01 22.5721 279.309 22.8921C279.618 23.2121 279.976 23.4681 280.381 23.6601C280.797 23.8414 281.256 23.9321 281.757 23.9321ZM281.725 26.2041C280.861 26.2041 280.066 26.0548 279.341 25.7561C278.616 25.4468 277.986 25.0361 277.453 24.5241C276.93 24.0014 276.52 23.3934 276.221 22.7001C275.933 21.9961 275.789 21.2441 275.789 20.4441V20.4121C275.789 19.6121 275.938 18.8654 276.237 18.1721C276.536 17.4681 276.946 16.8548 277.469 16.3321C278.002 15.7988 278.632 15.3828 279.357 15.0841C280.093 14.7748 280.893 14.6201 281.757 14.6201C282.621 14.6201 283.416 14.7748 284.141 15.0841C284.866 15.3828 285.49 15.7934 286.013 16.3161C286.546 16.8281 286.957 17.4361 287.245 18.1401C287.544 18.8334 287.693 19.5801 287.693 20.3801V20.4121C287.693 21.2121 287.544 21.9641 287.245 22.6681C286.946 23.3614 286.53 23.9748 285.997 24.5081C285.474 25.0308 284.845 25.4468 284.109 25.7561C283.384 26.0548 282.589 26.2041 281.725 26.2041ZM296.487 17.0841H293.079V14.8121L302.359 14.8121V17.0841H298.951V26.0121H296.487V17.0841ZM310.862 17.0841H307.454V14.8121L316.734 14.8121V17.0841H313.326V26.0121H310.862V17.0841ZM322.629 14.8121L331.077 14.8121V17.0041L325.077 17.0041V19.2761H330.357V21.4681H325.077V23.8201H331.157V26.0121H322.629V14.8121ZM342.307 20.2521C342.915 20.2521 343.379 20.1081 343.699 19.8201C344.03 19.5321 344.195 19.1481 344.195 18.6681V18.6361C344.195 18.1028 344.025 17.7028 343.683 17.4361C343.342 17.1694 342.867 17.0361 342.259 17.0361H339.811V20.2521H342.307ZM337.347 14.8121H342.467C343.886 14.8121 344.974 15.1908 345.731 15.9481C346.371 16.5881 346.691 17.4414 346.691 18.5081V18.5401C346.691 19.4468 346.467 20.1881 346.019 20.7641C345.582 21.3294 345.006 21.7454 344.291 22.0121L347.027 26.0121L344.147 26.0121L341.747 22.4281H341.715H339.811V26.0121H337.347V14.8121Z" fill="white"/>
</svg>
