<svg xmlns="http://www.w3.org/2000/svg" viewBox="0 0 344.79 41.59"><defs><style>.cls-1{fill:#1c252e;}.cls-2{fill:#62c2a4;}</style></defs><g id="Layer_2" data-name="Layer 2"><g id="Layer_1-2" data-name="Layer 1"><path class="cls-1" d="M9.46,16.22V25.3h1.26V14.1H9.44L5.36,20.21,1.28,14.1H0V25.3H1.23V16.24l4.08,6h.07ZM18,14.1V25.3h1.27V14.1Zm18.15,9.42-.84-.82a6.5,6.5,0,0,1-1.63,1.2A4.67,4.67,0,0,1,30,24a4.85,4.85,0,0,1-1.38-1,4.91,4.91,0,0,1-.91-1.48,5.16,5.16,0,0,1-.32-1.82,5.1,5.1,0,0,1,.32-1.81,5,5,0,0,1,.91-1.47,4.46,4.46,0,0,1,1.38-1,4.59,4.59,0,0,1,3.7.08,7.12,7.12,0,0,1,1.55,1.11l.86-.93a6.44,6.44,0,0,0-.86-.72,5,5,0,0,0-1-.56A5.54,5.54,0,0,0,33.09,14a7,7,0,0,0-1.38-.13,5.52,5.52,0,0,0-2.27.47,5.26,5.26,0,0,0-1.79,1.25,5.59,5.59,0,0,0-1.18,1.84,6,6,0,0,0-.42,2.25A6.07,6.07,0,0,0,26.47,22a5.59,5.59,0,0,0,1.18,1.84A5.43,5.43,0,0,0,29.43,25a5.5,5.5,0,0,0,2.24.45,6,6,0,0,0,1.39-.15,5.21,5.21,0,0,0,1.17-.4,5.52,5.52,0,0,0,1-.6A8.85,8.85,0,0,0,36.15,23.52Zm13.94-3.26v5h1.26V14.1H50.09v5H43.62v-5H42.36V25.3h1.26v-5ZM63.84,14H62.66L57.56,25.3h1.29l1.33-3h6.1l1.31,3H69Zm1.94,7.18h-5.1l2.56-5.71Zm17.47-7.1H75.16V25.3h8.17V24.14H76.42V20.22h6.11V19.07H76.42V15.25h6.83Zm6.63,11.2h7.56V24.13h-6.3v-10H89.88Z"/><path class="cls-2" d="M126.54,1.86a1.26,1.26,0,0,0-.49-1.7,1.24,1.24,0,0,0-1.7.48ZM107.32,31.38a1.25,1.25,0,1,0,2.19,1.21Zm17-30.74-17,30.74,2.19,1.21,17-30.73Z"/><path class="cls-2" d="M128.94,10.21A1.25,1.25,0,1,0,126.75,9ZM109.73,39.74A1.25,1.25,0,1,0,111.91,41ZM126.75,9l-17,30.74L111.91,41l17-30.74Z"/><path class="cls-1" d="M141.73,25.46a4.47,4.47,0,0,1-2.2-.5,5.08,5.08,0,0,1-1.46-1.18l1.55-1.73a4.74,4.74,0,0,0,1,.83,2.17,2.17,0,0,0,1.09.29,1.44,1.44,0,0,0,1.1-.43,2.11,2.11,0,0,0,.4-1.43V14.1h2.53v7.32a5.07,5.07,0,0,1-.27,1.75,3.4,3.4,0,0,1-.78,1.25,3.49,3.49,0,0,1-1.27.78A5,5,0,0,1,141.73,25.46Zm16.92-4.85L157.17,17l-1.49,3.63ZM156.06,14h2.27l4.8,11.28h-2.57l-1-2.52H154.8l-1,2.52h-2.51Zm18.05,11.47a5.81,5.81,0,0,1-2.29-.45,5.49,5.49,0,0,1-3-3.06,5.82,5.82,0,0,1-.43-2.25v0a5.73,5.73,0,0,1,.43-2.24,5.64,5.64,0,0,1,1.2-1.84,5.27,5.27,0,0,1,1.84-1.25,5.86,5.86,0,0,1,2.37-.47,7.72,7.72,0,0,1,1.42.13,6.87,6.87,0,0,1,1.18.35,5.17,5.17,0,0,1,1,.55,6.27,6.27,0,0,1,.83.7l-1.57,1.81a6,6,0,0,0-1.34-.93,3.4,3.4,0,0,0-1.52-.33,3.17,3.17,0,0,0-1.31.27,3.07,3.07,0,0,0-1,.75,3.59,3.59,0,0,0-.67,1.12,3.71,3.71,0,0,0-.24,1.34v0a3.85,3.85,0,0,0,.24,1.36,3.68,3.68,0,0,0,.66,1.12,3.32,3.32,0,0,0,1,.76,3.11,3.11,0,0,0,1.33.28,3.34,3.34,0,0,0,1.62-.36,5.88,5.88,0,0,0,1.32-1l1.57,1.59a7.62,7.62,0,0,1-.89.83,5.1,5.1,0,0,1-1,.64,4.82,4.82,0,0,1-1.2.38A6.65,6.65,0,0,1,174.11,25.49ZM184.67,14.1h2.47V19l4.54-4.89h3l-4.56,4.75,4.77,6.45h-3l-3.48-4.77-1.29,1.34V25.3h-2.47Zm19.68,11.36a7.55,7.55,0,0,1-2.52-.44,6.68,6.68,0,0,1-2.24-1.36l1.46-1.74a6.85,6.85,0,0,0,1.57,1,4.16,4.16,0,0,0,1.77.37,2.18,2.18,0,0,0,1.19-.27.89.89,0,0,0,.43-.79v0a.76.76,0,0,0-.1-.41.79.79,0,0,0-.33-.36,3.81,3.81,0,0,0-.69-.32q-.44-.15-1.14-.33a12.63,12.63,0,0,1-1.53-.47,4.31,4.31,0,0,1-1.17-.62,2.74,2.74,0,0,1-.75-.94,3.4,3.4,0,0,1-.26-1.4v0a3.22,3.22,0,0,1,1.09-2.45,3.86,3.86,0,0,1,1.25-.68,5,5,0,0,1,1.58-.24,6.78,6.78,0,0,1,2.26.36,6.57,6.57,0,0,1,1.9,1.06l-1.28,1.86a7.65,7.65,0,0,0-1.47-.8,3.56,3.56,0,0,0-1.44-.31,1.77,1.77,0,0,0-1.09.29.84.84,0,0,0-.35.69v0a1.06,1.06,0,0,0,.1.48A.93.93,0,0,0,203,18a3.58,3.58,0,0,0,.74.31l1.2.33a10.93,10.93,0,0,1,1.5.51,3.93,3.93,0,0,1,1.12.68,2.35,2.35,0,0,1,.69.91,3,3,0,0,1,.24,1.26v0a3.36,3.36,0,0,1-.31,1.49,3.1,3.1,0,0,1-.84,1.09,4.1,4.1,0,0,1-1.3.67A5.79,5.79,0,0,1,204.35,25.46Zm15.72-2.24a3.25,3.25,0,0,0,1.36-.28,3,3,0,0,0,1-.75,3.41,3.41,0,0,0,.69-1.1,3.66,3.66,0,0,0,.26-1.36v0a3.62,3.62,0,0,0-.26-1.36,3.17,3.17,0,0,0-.7-1.12,3.42,3.42,0,0,0-1.07-.76,3.25,3.25,0,0,0-1.36-.28,3.43,3.43,0,0,0-1.38.27,3.19,3.19,0,0,0-1.06.75,3.81,3.81,0,0,0-.68,1.12,3.71,3.71,0,0,0-.24,1.34v0a3.85,3.85,0,0,0,.24,1.36,3.59,3.59,0,0,0,.7,1.12,3.66,3.66,0,0,0,1.07.76A3.31,3.31,0,0,0,220.07,23.22Zm0,2.27a6.2,6.2,0,0,1-2.39-.45,6.43,6.43,0,0,1-1.89-1.23,5.62,5.62,0,0,1-1.66-4.08v0a5.57,5.57,0,0,1,.45-2.24,5.71,5.71,0,0,1,1.23-1.84,5.57,5.57,0,0,1,1.89-1.25,6.08,6.08,0,0,1,2.4-.47,6,6,0,0,1,2.38.47,5.64,5.64,0,0,1,1.87,1.23,5.21,5.21,0,0,1,1.24,1.82,5.77,5.77,0,0,1,.44,2.24v0a5.63,5.63,0,0,1-1.69,4.09A5.67,5.67,0,0,1,222.42,25,6.19,6.19,0,0,1,220,25.49ZM232.19,14.1h2.27L239.71,21V14.1h2.43V25.3h-2.09l-5.43-7.12V25.3h-2.43Zm16.1,5.07h4.92V21.5h-4.92Zm15.49.57a2,2,0,0,0,1.44-.48,1.62,1.62,0,0,0,.51-1.21v0a1.53,1.53,0,0,0-.54-1.27,2.25,2.25,0,0,0-1.46-.43h-1.9v3.42Zm-4.42-5.64h4.58a5.22,5.22,0,0,1,1.79.28,3.78,3.78,0,0,1,1.34.79,3.2,3.2,0,0,1,.85,1.23,4,4,0,0,1,.31,1.57v0a3.84,3.84,0,0,1-.36,1.71,3.45,3.45,0,0,1-1,1.23,4.14,4.14,0,0,1-1.44.76,6.24,6.24,0,0,1-1.76.24h-1.87V25.3h-2.47Zm20.16,9.12a3.21,3.21,0,0,0,1.36-.28,3,3,0,0,0,1.06-.75,3.41,3.41,0,0,0,.69-1.1,3.65,3.65,0,0,0,.25-1.36v0a3.61,3.61,0,0,0-.25-1.36,3.19,3.19,0,0,0-.71-1.12,3.3,3.3,0,0,0-1.07-.76,3.25,3.25,0,0,0-1.36-.28,3.47,3.47,0,0,0-1.38.27,3.26,3.26,0,0,0-1.05.75,3.64,3.64,0,0,0-.69,1.12,3.71,3.71,0,0,0-.24,1.34v0a3.85,3.85,0,0,0,.24,1.36,3.33,3.33,0,0,0,1.78,1.88A3.23,3.23,0,0,0,279.52,23.22Zm0,2.27a6,6,0,0,1-4.27-1.68A5.47,5.47,0,0,1,274,22a5.82,5.82,0,0,1-.44-2.25v0a5.57,5.57,0,0,1,.45-2.24,5.71,5.71,0,0,1,1.23-1.84,5.77,5.77,0,0,1,1.89-1.25,6.15,6.15,0,0,1,2.4-.47,6,6,0,0,1,2.39.47,5.85,5.85,0,0,1,1.87,1.23A5.33,5.33,0,0,1,285,17.42a5.6,5.6,0,0,1,.45,2.24v0A5.65,5.65,0,0,1,285,22a5.82,5.82,0,0,1-1.25,1.84A5.67,5.67,0,0,1,281.87,25,6.15,6.15,0,0,1,279.49,25.49Zm14.76-9.12h-3.41V14.1h9.28v2.27h-3.4V25.3h-2.47Zm14.38,0h-3.41V14.1h9.28v2.27h-3.41V25.3h-2.46Zm11.76-2.27h8.45v2.19h-6v2.27h5.28v2.19h-5.28V23.1h6.08v2.2h-8.53Zm19.68,5.44a2,2,0,0,0,1.39-.44A1.44,1.44,0,0,0,342,18v0a1.44,1.44,0,0,0-.51-1.2,2.25,2.25,0,0,0-1.43-.4h-2.44v3.22Zm-5-5.44h5.12a4.46,4.46,0,0,1,3.27,1.13,3.47,3.47,0,0,1,1,2.56v0a3.53,3.53,0,0,1-.68,2.23,3.85,3.85,0,0,1-1.72,1.25l2.73,4h-2.88l-2.4-3.59h-1.93V25.3h-2.47Z"/></g></g></svg>